<?xml version="1.0" encoding="UTF-8"?>
<svg id="Layer_1" xmlns="http://www.w3.org/2000/svg" version="1.1" viewBox="0 0 411.19 448.82">
  <!-- Generator: Adobe Illustrator 30.6.0, SVG Export Plug-In . SVG Version: 2.1.4 Build 109)  -->
  <defs>
    <style>
      .st0 {
        fill: #fff;
      }
    </style>
  </defs>
  <path id="path493-675" class="st0" d="M297.9,0c-8.63-.26-35.49,7.92-50.14,17.28-6.13-2.13-12.81-3.84-19.04-4.91-3.36-.58-8.27-.76-13.61-.74-11.75.06-25.58,1.18-29.52,1.59-3.82.39-13.9,1.65-22.85,2.97-9.38-6.7-19.31-11.07-30.68-13.49-7.25-1.54-16.92-2.37-24.26-2.37-.18,0-.35,0-.53,0h0c-5.44.04-9.49.54-10.12,1.55-.55.89-2.06,1.21-3.36.72-3.02-1.16-20.58,3.33-31.61,8.07-7.73,3.32-8.43,4.08-7.51,8.07.69,2.98.52,3.65-.54,2.06-1.26-1.89-1.76-1.73-2.59.85-.99,3.06-5.56,5.94-14.59,9.2-3.75,1.35-3.86,1.29-.94-.55,1.81-1.14,6.39-5.01,10.17-8.6,6.56-6.23,6.39-6.17-3.64,1.31-12.56,9.36-13.46,10.57-8.95,12,4.65,1.47,30.48.34,30.48-1.34,0-.73,1.48-.54,3.28.42,1.8.96,5.1,1.75,7.32,1.75,7.17,0,18.63,4.27,26.94,9.87-8.04,7.59-19.5,20.75-15.43,28.73,1.17,2.29-5.08,5.62-6.44,6.18-2.61,1.07-6.07,5.47-3.07,8.99,1.38,1.63,5.56,2.26,8.6,3.67,3.04,1.41,6.22,2.99,9.46,4.72,8.43,4.49,12.67,7.43,22.4,14.18,2.86,1.98,5.25,3.93,7.33,5.81-1.2,1.34-1.87,2.29-1.55,2.29.46,0-.09,1.71-1.2,3.81-1.9,3.57-1.83,3.65,1.06,1.27,1.16-.96,2.82-2.87,4.31-4.87.32.32.64.64.95.96-3.26,3.68-7.53,7.12-9.08,6.53-1.79-.69-2.17-.15-1.37,1.94,1.04,2.72.92,2.72-2.06.02-5.59-5.06-7.86-3.28-3.35,2.64,4.27,5.61,7.45,13.13,5.56,13.13-4.29,0-11.72-6.6-16.74-14.86-13.27-21.84-26.82-30.41-50.54-31.95-2.42-.16-5.01-.23-7.52-.23h0c-5.54,0-10.78.35-13.34.98l-6.78,1.67,6.35.17c6.73.18,21.85,9.53,25.04,15.5.91,1.7,3.75,3.33,6.31,3.62,3.2.37,4.59,1.46,4.43,3.47-.13,1.61,2.73,5.81,6.35,9.32,3.62,3.51,6.59,7.04,6.59,7.84,0,.8-2.86.98-6.35.39l-6.35-1.07,9.01,8.5c4.96,4.68,11.05,9,13.55,9.6,4.83,1.17,13.73,11.19,11.02,12.09-.88.29-2.75-1.03-5.88-2.93-3.13-1.91-19.87-7.7-20.81-7.69-2.42.02,12.78,6.8,17.41,9.56,5.51,3.29,8.19,14.39,13.02,8.22,2.08-2.65,3.47-2.48,4.08-2.81.61-.33.3-1.21-.9-2.67-.98-1.19-2.04-4.05-2.36-6.36-.49-3.49-1.16-4.92-10.9-8.47-6.45-2.35-12.05-5.25-12.44-6.43-.47-1.42,3.25-.66,10.88,2.23,6.38,2.42,11.97,4.5,12.44,4.64.47.14,2.37-.6,4.24-1.63,1.86-1.04,7.77-2.43,13.13-3.1,8.63-1.08,9.74-1.65,9.74-5.05,0-2.11,1.14-4.78,2.54-5.94,1.4-1.16,2.14-1.76,2.54-4.17,1.11-2.62,1.45-4.87,1.33-6.88,1.27,1.21,2.52,2.11,3.94,2.6,7.69,2.62,13.4-.31,19.82-2.49,6.62-2.25,46.12-11.54,92.08-.38-.23.38-.43.78-.58,1.18-.81,2.19-2.97,5.04-4.8,6.32-1.83,1.28-3.33,3.12-3.33,4.08s2.19-.09,4.86-2.34c4.14-3.49,8.42-5.79,12.48-6.92,17.73,5.24,33.6,11.68,51.27,24.83.96,3.13-2.53,4.84-2.53,6.81,0,1.85-1.27,4.77-2.81,6.48-1.55,1.71-2.47,3.46-2.05,3.88,1.41,1.41,8.25-1.15,8.31-3.11.07-2.16,2.71-5.59,6.16-8.56,2.07,1.65,3.61,2.87,5.65,4.66-4.12.56-8.53,2.13-8.52,3.51.02,3.66-4.91,3.85-2.5,4.46,3.2.82,9.38-2.76,13.54-5.67,2.94,2.65,5.85,5.43,8.71,8.38,3.77,3.88,10.44,4.49,9.98-2.24-.3-4.47-1.89-9.34-4.39-14,1.85-1.47,4.47-1.97,9.15-6.21,2.73-2.48,2.19-2.76,3.26-4.17.94-1.24,2.78-3.75,2.78-3.75,0,0,3.1-3.12,4.09-4.83.62-1.08.95-2.29,1.53-3.39.55-1.04,1.16-1.93,1.84-3.01l1.5-2.3,1.61-2.13c.2-1.41,1.9-3.38,4.37-6.25.54-.63,2.1-3.55,1.81-3.65-.3-.1-2.34,2.26-4.89,4.04-1.27.89-3.98,2.91-4.83,4.35-1.55,2.64-4.22,6.71-5.39,8.68-.98,1.65-3.82,5.52-6.16,7.57.28-.58.57-1.13.79-1.85,2.47-8.15,2.35-16.45.52-24.41.29-.13.57-.27.88-.4,3.25-1.36,5.91-3.2,5.91-4.09,0-3.21,18.06-15.28,23.03-15.38l4.93-.12-4.24-1.75c-1.58-.65-5.22-1.01-9.93-1.05-2.82-.02-6.03.08-9.41.31-5.42.36-12.12,2.03-18.52,4.1-1.41-2.46-2.39-4.25-4.01-6.52,6.8-3,13.06-7.04,13.06-7.93,0-.35-.32-.51-.88-.51-.04,0-.08,0-.12,0-2.32.07-8.32,2.53-14.07,5.86-5.18-6.81-11.1-12.51-16.7-16.45-7.74-5.45-17.33-16.63-23.37-24.07,4.94-5.47,20-13.63,28.4-15.3,4.92-.98,11.04-2.43,13.61-3.22,2.56-.8,4.66-.93,4.66-.31,0,1.5,26.35,2.43,30.6,1.08,1.81-.58,3.29-1.82,3.29-2.77s-.95-1.38-2.12-.97c-3.45,1.22-18.21-6.99-18.21-10.13,0-2.28.91-1.98,4.66,1.51,2.56,2.39,6.57,5.3,8.9,6.47,4.1,2.05,4.07,1.95-.7-3.14-5.86-6.24-26.9-17.47-39.97-21.32-5.13-1.51-18.27-4.16-26.24-4.73-3.14-.22-6.61,3.64-6.82.62h0c-.05-.77-1.04-1.15-2.75-1.2h0ZM116.32,1.98c.47,0-.95,1.9-3.14,4.23-2.19,2.33-4.36,4.24-4.82,4.24s.94-1.91,3.13-4.24c2.19-2.33,4.36-4.23,4.83-4.23ZM111.09,2.34c.52,0-.43,1.13-2.96,4.07-2.32,2.69-4.79,5.62-5.51,6.5-1.88,2.33-1.59-.44.44-4.23.95-1.78,3.43-4.12,5.51-5.2,1.36-.71,2.21-1.14,2.52-1.14ZM296,2.64h.03c.83,0,3.29,1.9,5.48,4.23,5.62,5.98,3.56,6.59-2.22.66-2.58-2.65-2.55-4.89-3.3-4.89h0ZM303.41,3.47c.91,0,3.31,2.33,5.34,5.18,5.16,7.25,3.35,7.77-2.32.67-2.57-3.22-3.93-5.85-3.02-5.85ZM91.12,3.67h.08c2.92,0,3.19.53,1.71,3.3-.97,1.81-2.6,3.81-3.62,4.44-1.21.75-1.15-.17.18-2.66,1.27-2.37,1.48-3.19.68-2.89,1.32-1.29,2.01-2.19.98-2.19h0ZM121.83,3.67c1.27,0-.53,2.34-3.98,5.19-3.46,2.85-7.04,6.47-7.96,8.05-.92,1.58-1.69,1.97-1.72.87-.07-2.8,10.88-14.1,13.67-14.1h0ZM289.74,3.81h0s.02,0,.03,0c.14,0,.39.09.74.26,1.87.91,4.85,3.24,6.62,5.19,4.55,5.03,2.83,4.32-4.09-1.69-2.45-2.12-3.7-3.54-3.38-3.74.02-.01.08,0,.08-.03h0ZM318.39,4.59c.24.02.4.12.4.35,0,.13.26,0,.4,0,.64.03,1.37.12,2.2.3,2.58.54,5.63,1.17,6.77,1.41,1.14.23,2.55.91,3.13,1.49.58.58,2.13.65,3.44.15,1.31-.5,2.38-.02,2.38,1.07s.67,1.56,1.5,1.05c2.1-1.29,5.79,3.53,4.72,6.18-.57,1.41-.92,1.16-1.01-.69-.07-1.58-.93-3.35-1.9-3.95-1.14-.71-1.41.6-.76,3.71.95,4.58.88,4.55-1.55-.7-3.05-6.59-5.03-7.38-2.62-1.04,2.4,6.32.82,6.89-1.77.63-2.64-6.38-5.98-8.92-4.2-3.2l1.26,4.03-3.76-4.24c-3.12-3.52-3.57-3.67-2.67-.89.95,2.94.53,2.84-3.48-.85l-4.18-3.85c-.36-.33,1-1.01,1.71-.95h0ZM316.53,5.54s.02.05.02.1h0l1.97,3.78c2.08,4,2.03,4.1-.9,1.69-2.91-2.39-3.02-2.23-1.83,2.54,1.5,6.02.78,5.46-3.29-2.54-2.43-4.77-2.51-5.51-.41-3.77,2.14,1.78,2.79,1.7,3.62-.46.18-.46.74-1.43.84-1.35h0ZM81.62,5.74c.05.01.11.04.15.05.16.03.29.08.38.17.27.27-1.02,3.46-2.87,7.08-2.25,4.42-3.38,5.5-3.4,3.28-.02-2.81-.3-2.93-1.8-.78-1.37,1.96-1.52,1.62-.64-1.48.38-1.34.51-2.24.4-2.72,3.54-1.97,7.66-3.94,7.68-5.56h0s.04-.05.1-.03h0ZM96.9,5.96s.02.04,0,.11c0,.02.04,0,.06,0,.04,0,.08,0,.11.02.19.06.35.25.45.56.39,1.17,1.48,1.65,2.43,1.06.95-.58.78.74-.37,2.95-3.01,5.78-3.95,6.35-2.45,1.49,1.21-3.92,1.08-4.04-1.76-1.69-2.89,2.38-2.94,2.29-.81-1.7.8-1.51,2.17-2.84,2.35-2.8h0ZM137.32,7.51c.39,0,.69.08.88.27.53.53.19.97-.76.97s-5.46,2.8-10.02,6.22c-6.87,5.15-7.57,5.42-4.06,1.54,4.09-4.52,11.22-8.98,13.96-9h0ZM274.43,7.8c3.2-.09,15.22,7.93,15.22,10.15s-.94,2.03-3.48-1.02c-1.21-1.46-4.93-4.1-8.26-5.86-3.33-1.76-4.9-3.23-3.48-3.27h0ZM145.71,8.72c1.16,0,1.63.35.83,1.15-.61.61-4.17,2.48-7.91,4.15-7.8,3.49-9.33,1.22-1.8-2.68,3.1-1.6,6.95-2.61,8.88-2.62h0ZM87.04,8.76c-.92,1.17-1.92,2.58-2.78,3.99-1.78,2.93-3.25,4.56-3.25,3.63,0-1.96,3.15-5,6.03-7.62h0ZM268.02,8.9h0c3.15.06,11.46,5.19,11.46,6.5,0,.44-.19.75-.42.67-9.2-2.9-15.07-5.77-12.82-6.24.17-.04.59.18.59-.05.01-.63.46-.89,1.19-.88h0ZM78.18,9.4c-.15,0-.35.07-.59.22-.92.57-1.68,1.75-1.68,2.63,0,2.44,1.22,1.9,2.34-1.03.43-1.13.38-1.8-.08-1.81h0ZM148.28,11.21c1.17-.08,1.95.35,2.12,1.53h0c.02.15.31,0,.46,0,2.18.07,4.05.66,5.54,1.8,1.75,1.33,2.52,1.97,2.2,2.29-.62.1-1.2.19-1.79.29-.52.02-.99.05-1.77.06-2.62.03-4.32-.66-3.78-1.53.6-.97-1-1.02-4.14-.12-2.81.81-5.12,1.12-5.12.69s-4.19,1.9-9.32,5.18c-5.13,3.28-9.32,5.6-9.32,5.15s4-3.44,8.9-6.65c5.4-3.55,12.51-8.44,16.03-8.69h0ZM263.72,12.72c.12-.03.39.09.53.09,1.88.05,3.46.47,4,1.34.46.74-1.98,1.13-5.41.87-5.58-.42-5.76-.31-1.75,1.01,7.25,2.38,25.17,12.37,25.17,14.02,0,.84-2.85-.41-6.33-2.77-6.67-4.53-12.11-5.96-6.48-1.7,4.67,3.54,1.18,2.95-5.83-.98l-5.93-3.32,5.08.86,5.08.86-5.08-2.48c-2.8-1.36-6.99-2.42-9.32-2.35-3.87.11-3.8.24.85,1.42,4.81,1.22,4.85,1.32.84,1.64l-1.58.13c-2.15-1.08-4.52-2.09-7.01-3.04.46-.25.84-.42,1.05-.42,1.12,0,2.99-1.14,4.15-2.54,1.29-1.56,7.94.48,7.9-2.54h0c0-.05.02-.08.07-.09h0ZM71.33,12.82c-.3.6-.5,1.26-.5,1.87,0,1.29-.75,2.81-1.67,3.38-1.06.65-1.16-.4-.28-2.87.27-.76,1.2-1.56,2.45-2.38h0ZM121.34,13.84c.47,0-.53,1.52-2.22,3.39-1.69,1.86-3.45,3.39-3.91,3.39s.53-1.52,2.22-3.39c1.69-1.86,3.45-3.39,3.92-3.39h0ZM290.47,13.86h0s.02,0,.03,0c.03,0,.07,0,.1.02.51.15,1.74,1.12,3.39,2.7,2.64,2.53,4.39,5.02,3.89,5.52-.96.96-5.11-3.32-7.35-7.59-.23-.43,0-.81-.06-.65h0ZM148.78,17.27c.35-.05,1.04.43,1.24.63.14.14.18.28.13.41-1.26.26-2.5.52-3.72.8-.56.04-.93.1-.94.22-2.59.61-5.1,1.28-7.56,2.06,3.66-2.07,7.91-3.68,10.34-3.85.1,0,.2-.01.3-.01,0-.17.09-.24.2-.26h0ZM359.31,18.71s.03,0,.05,0c.52.03.65,1.04.25,2.57-1.03,3.96-2.19,4.45-2.19.94,0-1.34.69-2.87,1.54-3.39.11-.07.2-.1.29-.12.02,0,.07,0,.06,0h0ZM265.69,25.5c5.89,2.84,12.09,6.8,12.09,8.11,0,.85-3.24-.35-7.2-2.66-.89-.52-1.87-1.04-2.89-1.55-.33-.43-.52-.88-.52-1.36,0-.92-.59-1.76-1.48-2.53ZM129.28,36.51c-.7,1.35-2.03,2.69-3.24,3.95.01-.07,0-.12.04-.22.32-.84,1.65-2.3,3.21-3.74h0ZM106.89,49.78c.9.76,1.68,1.47,2.4,2.16-3.23,5.75-10.79,15.25-14.13,16.19-5.14-2.69,5.84-13.63,11.73-18.35ZM367.6,85.81c-1.69,0-5.87.25-7.54,1.03-3.11,1.39,3.28.6,7.54,1.15,5.08.66,9.02-.77,6.46-1.15-1.28-.19-4.77-1.03-6.46-1.03ZM47.34,86.59c-2,0-4,.09-5.51.28-.07,0-.1.01-.16.03-2.64.21-19.21,1.57-24.02,2.93-5.23,1.48-17.65,9.75-17.65,9.75,0,0,9.63,3.2,15.22,5.91,5.58,2.71,8.37,5.47,10.98,6.3s-6.76-7.28-9.96-8.57c-3.2-1.29-8.7-4.1-8.7-4.1,0,0,6.33-3.99,10.29-5.51,7.36-2.82,17.72-4.71,22.39-5.42.97-.15,6.28-.6,8.41-.43,4.24.35,7.25-.52,4.22-.9-1.51-.19-3.51-.28-5.51-.28h0ZM379.67,87.97s11.12,5.68,14.56,6.53c3.35.83,9.89,1.04,9.89,1.04,0,0-4.77,4.64-8.03,7.36-2.42,2.01-9.18,8.28-12.7,11.61-.91.63-2.46,2.41-4.12,4.18-2.19,2.33-3.41,4.98-2.94,4.98s2.64-1.91,4.83-4.24c1.44-1.53,2.47-2.82,2.93-3.56,3.5-2.79,10.2-8.16,13.43-10.9,4.15-3.51,13.67-12.07,13.67-12.07,0,0-10.14-.24-16.27-1.2-6.13-.96-15.25-3.74-15.25-3.74h0ZM60.38,88.07h0s-.05,0-.08,0c-2.02.11,2.58,3.31,11.68,7.52,15.52,7.17,24.4,6.68,15.72,2.43,0,0-9.08-3.8-10.92-4.66-1.59-.74-3.42-2.06-4.87-3.88-3.32.15-3.27.96-6.08,0-2.75-.96-4.51-1.4-5.37-1.41-.03,0-.06,0-.08,0h0ZM109.49,88.97c2.82.01,28.05,25.05,49.72,18.94,10.31-2.91,9.42-2.92,23.09-3.5,6.5-.27,12.62-.74,27.52.48,3.07.25,13.81,1.05,18.75,2.63,14.12,4.53,23.21,5.07,24.21,10.39.32,1.7-9.53-1.02-22.99-3.65-13.54-2.64-18.45-2.94-34.53-3.77-10.83-.54-11.56-.5-23.92,1.22-9.1,1.26-21.94,8.17-42.21-4.83-6.08-3.9-19.05-15.52-19.39-16.22-.59-1.18-.64-1.7-.24-1.69h0ZM29.48,113.78c-.79-.09,2.72,3,3.82,4.74s4.72,5.16,5.02,5.16c1.33,0,.91-2.23-3.44-6.07,0,0-4.6-3.74-5.39-3.83h0ZM279.64,120.95c4.86.3,21.36,5.06,26.33,8.04,26.02,15.59-2.29,4.94-10.47.98-.27-3.22-19.77-5.07-20.06-6.66-.29-1.58,1.53-1.01,2.92-2.21.09-.07.25-.12.48-.15.21-.02.48-.02.81,0h0ZM41.42,124.41c-.41.05.59,1.36,3.18,4.43,2.32,2.76,3.63,4.39,3.82,7.15l3.11,4.43.58.82c.5.12.95.74,1.38,1.86.01.04.02.1.03.14l2.88,4.1,4.14,5.82,3.33,3.11,6.04,1.28-9.12-10.8c-3.01-3.59-7.33-8.59-9.21-12.35-1.89-3.76-5.13-8.21-7.22-9.5-1.25-.77-2.68-.52-2.92-.49h0ZM150.07,142.57c-.71,0,.04.93,2.33,2.98l4.24,3.8-4.24-1.09c-2.33-.6-5.38-1.45-6.78-1.9-1.4-.45-4.07.33-5.93,1.75-3.13,2.37-2.44,2.57,8.95,2.63,11.83.05,12.27-.09,10.53-3.34-1-1.86-2.49-3.39-3.31-3.39s-2.89-.51-4.6-1.13c-.56-.2-.96-.31-1.2-.31h0ZM265.18,142.66h0s-.05,0-.08,0c-.52.03-1.64.23-3.41.57-2.8.54-6.58,2.47-8.42,4.27-3.31,3.25-3.23,3.28,9.1,3.28,11.03,0,12.2-.3,10.27-2.62-1.2-1.44-3.01-2.31-4.02-1.93-6.36,2.38-9.47,2.88-9.47,1.53,0-.85,1.72-2.44,3.81-3.54,2.07-1.08,2.9-1.56,2.28-1.58-.02,0-.04,0-.06,0h0ZM106.54,147.4c.99,0,1.79.77,1.79,1.7s-.33,1.69-.74,1.69-1.22-.76-1.8-1.69c-.58-.93-.24-1.7.75-1.7ZM334.23,148.42c.91.06,2.54.64,5.17,1.93,3.08,1.51,7.3,2.66,10.5.66-3.05,2.84-8.27,7.11-9.84,8.38-.56-.85-1.08-1.71-1.71-2.55-3.07-4.09-6.85-8.6-4.12-8.42h0ZM264.12,152.73c-2.17,0-4.3.07-6.35.17-13.38.69-17.32,1.62-25.99,6.09-9.58,4.94-10.69,5.15-17.69,3.27-5.75-1.54-9.21-1.54-14.95,0-7.04,1.88-8.1,1.68-18.07-3.46-10.53-5.43-10.73-5.46-34.46-5.27-15.48.12-26.55,1.04-31.5,2.61-6.74,2.14-9.09,3.05-9.56,7.87-.3,3.1,1.91,6.49,3.27,7.85,1.32,1.32,3.34,8.28,4.5,15.47,2.99,18.56,6.48,29.22,10.2,31.21,2.76,1.48,2.97,2.5,1.48,7.23-1.63,5.17-3.05,10.6-5.83,22.31-1,4.2-.74,4.77,1.73,3.83,2.6-1,2.57-.63-.3,3.54-7.06,10.26-9.81,22.84-7.14,32.75,1.46,5.42,2.34,6.62,3.54,4.81,1.2-1.81,1.52-1.35,1.29,1.82-.17,2.33-.09,9.96.18,16.95.4,10.43.71,11.65,1.73,6.78l1.25-5.93.33,7.62.34,7.63,3.6-9.75c1.98-5.36,4.55-9.74,5.7-9.74,1.44,0,.8,3.18-2.02,10.13-2.26,5.57-4.12,11.3-4.12,12.71,0,1.24-.24,1.99-.83,2.24l-.29,2.61-.36,6.82.06,5.99.29,2.87c.73.81,1.13,1.41,1.13,1.74,0,1.11-.15,1.81-.75,1.98l.03.25.75,3.54c.68.45,2.8,4.78,4.88,10.02,2.2,5.54,6.2,12.59,8.89,15.67l4.9,5.61s-.58-4.52-.87-6.78c-.29-2.26-1.39-6.61-.88-6.78.52-.17,1.74,3.65,2.55,5.51,1.91,4.38,3.82,6.42,3.1.85-.24-1.88.72-1.87,2.59,5.06,2.83,10.51,11.61,24.21,17.2,29.27,4.04,3.66,4.14,3.09.83-4.84-1.4-3.35-2.46-7.82-2.37-9.95.13-2.8.54-2.3,1.52,1.81,1.82,7.68,6.97,18.89,8.69,18.89.77,0,.67-1.91-.22-4.24-.89-2.33-1.67-4.27-1.12-4.24,4.47.25,17.91,8.86,20.41,11.63,3.23,3.59,3.3,13.04.14,21.42-.73,1.94,2.95-.61,8.58-5.93,0,0,9.24-9.74,9.85-9.32.61.42-3.69,5.15-5.67,7.62-2.57,3.22-6.19,7.02-5.67,7.63s9.87-8.05,9.87-8.05c5.05-4.79,10.18-9.88,12.22-10.49,2.04-.61,6.14-3.88,9.1-7.26,3.98-4.54,5.09-5.18,4.23-2.46-1.7,5.34.26,4.52,4.34-1.82,1.95-3.03,3.09-3.98,2.53-2.12-1.6,5.33,10.25-8.75,14.16-16.83,1.87-3.86,4.17-11.13,5.13-16.15,2.24-11.81,4.04-13.58,2.64-2.61,0,0-1.56,8.49-1.07,8.47.49-.02,2.24-3.95,3.36-5.93,1.12-1.98,2.81-6.02,3.37-5.93.55.09.15,4.07-.14,6.33-.29,2.26-2.14,7.04-1.61,7.23s-.07-.57,3.76-4.24c2.25-2.15,5.9-8.91,8.52-14.62,1.01-2.2,2.55-4.69,2.8-5.54.25-.86,2.07-6.14,2.29-7.83.22-1.69-.05-1.69-.06-2.09-.01-.4-.28-1.32-.05-2,.82-2.41,1.77-4.78,2.46-7.23.32-1.12.65-2.24.78-3.4.17-1.53.13-3.08,0-4.61-.09-1.12-.15-1.8-.55-3.32-.4-1.52-4.66-13.2-4.66-13.2-2.56-7.26-4.42-13.43-4.13-13.73.72-.72,8.24,11.53,9.64,15.72.91,2.72,1.17,2.38,1.33-1.7.13-3.44.66-4.36,1.62-2.84,1.52,2.4,4.1-11.35,2.87-15.33-.37-1.19-1.07-5.97-1.56-10.63-.71-6.69-.54-7.59.79-4.28,1.38,3.43,1.98,3.74,3.27,1.69,2.54-4.02,1.87-19.86-1.13-26.7-1.52-3.46-3.01-9.61-3.31-13.65-.3-4.04-1.41-8.4-2.47-9.67-1.06-1.27-1.46-3.06-.9-3.97.56-.91-.21-4.73-1.71-8.5-2.62-6.55-2.59-7.03.81-11.35,4.09-5.2,6.05-11.75,8.76-29.37,1.12-7.29,3.36-14.52,5.31-17.16,4.21-5.69,3.45-10.27-2.15-12.95-6.52-3.13-23.78-5.39-38.97-5.34h0ZM260.18,160.79c9.04-.04,21.82,1.82,25.67,4.72,4.45,3.35,4.64,4.13,4.51,17.69-.17,16.42-2.82,25.98-8.18,29.49-5.25,3.44-27.43,4.76-34.89,2.08-10.37-3.73-19.71-27.29-16.27-41.02.61-2.44,3.57-5.93,6.57-7.76,6.54-3.99,9.96-4.3,8.61-.78-.7,1.83-.21,2.27,1.75,1.52,1.5-.58,2.73-2.2,2.73-3.62,0-1.58,4.08-2.3,9.5-2.32h0ZM146.46,160.86l-5.93,2.17c-4.41,1.61-6.45,3.68-7.95,8.1l-2.02,5.93-.09-5.77c-.09-5.64-.18-5.7-3.45-2.74-1.84,1.67-2.98,3.63-2.53,4.35.45.72.94,4.43,1.09,8.24s.97,6.93,1.81,6.93,1.36,3.62,1.14,8.05c-.22,4.43.15,9.77.83,11.86,2.05,6.3,5.21,4.39,5.64-3.4.28-5.04,1.52-8.11,4.15-10.27,3.12-2.57,3.34-3.34,1.3-4.63-1.35-.85-3.79-1.56-5.42-1.58-2.18-.02-2.97-1.42-2.97-5.3v-5.27l3.15,3.89,3.16,3.89,10.81-3.54c7.64-2.5,11.7-3.06,13.85-1.91,3.01,1.61-7.78-14.98-11.44-17.6-.96-.68,1.55-1.26,5.56-1.27,4.08-.01,6.87.67,6.33,1.55-.54.87-.12,2.11.94,2.76,1.05.65,2.49.25,3.2-.89,1.72-2.78,11.05,1.97,13.75,7.01,4.51,8.42-3.75,36.51-12.3,41.85-8.51,5.31-35.42,3.24-40.65-3.13-3.44-4.19-7.03-23.62-6.24-33.76.7-9.05,5.43-13.18,16.68-14.58l7.62-.94ZM267.33,162.65c-6.54,0-9.28,2.5-17.63,16.1-3.09,5.03-3.09,5.06.2,2.24,3.12-2.67,3.9-2.65,12.64.37h0c11.85,4.09,14.71,4.1,16.88.05,5.33-9.97-.33-18.75-12.09-18.75h0ZM146.01,164.74h0c.06,0,.11,0,.17,0,2.7.07,6.21,1.55,6.22,3.1h0c0,2.06-7.98,2.06-9.25,0-.54-.87-.19-2.06.77-2.65.49-.3,1.16-.44,1.93-.45.05,0,.11,0,.16,0h0ZM265.52,165.07c1.22.01,2.55.31,3.52.86,2.6,1.46,2.59,1.66-.14,2.54-1.63.53-4.11,1.32-5.51,1.76-3.41,1.07-3.27-3.54.14-4.85.55-.21,1.25-.31,1.99-.3h0ZM285.95,166.81c-1.48.03-2.83,4.59-2.99,11.09-.19,7.74-1.5,9.49-8.14,10.94-6.5,1.41-7.13,3.54-1.46,4.97,2.99.75,4.34,2.59,5.18,7.04.62,3.31.63,7.58.03,9.48-.98,3.08-.7,3.25,2.45,1.56,3.1-1.66,4.58-6.05,3.67-10.92-.15-.83.87-6.17,2.27-11.86,2.6-10.53,2.64-17.34.12-21.41-.35-.56-.7-.85-1.05-.87-.02,0-.04,0-.07,0h0ZM137.65,168.42c.42.01,1.27,1.56,3.03,4.89,1.86,3.53,4.11,5.96,5.01,5.41s1.62-.19,1.62.79-1.09,1.79-2.42,1.79c-3.9,0-7.75-4.96-7.67-9.86.03-1.89.08-2.95.39-3.02.01,0,.03,0,.04,0h0ZM275.95,168.6h0c.11,0,.22.03.33.1,2.53,1.56,1.7,5.63-1.88,9.21-1.86,1.86-4.34,3.37-5.51,3.34-1.33-.03-1.06-.86.73-2.22,1.57-1.19,3.37-4.21,3.99-6.71.55-2.18,1.53-3.7,2.33-3.7h0ZM206.65,174.6c4.15,0,8.32.43,9.62,1.26,1.11.71,2.83,4.84,3.8,9.19,3.29,14.66,8.73,26.62,14.67,32.23,6.13,5.78,7.07,5.99,27.8,6.51,13.21.33,16.92,1.19,13.75,3.14-1.02.63-3.11,6.23-4.65,12.45-1.53,6.22-3.48,10.88-4.33,10.35-.89-.55-1.15,2.86-.62,8.09.84,8.31.76,8.56-.9,3.12-1.91-6.26-6.64-12.56-6.64-8.84,0,2.92-6.33,2.56-8.02-.46-.81-1.44-1.12,2.71-.73,9.74.37,6.74,1.54,12.82,2.6,13.51,1.28.83,1.07,1.27-.63,1.31-1.4.03.51,1.46,4.24,3.17,6.79,3.12,14.8,10.37,11.46,10.37-.98,0-2.2-1.09-2.71-2.43-.51-1.34-2.69-3.37-4.83-4.52-3.68-1.97-3.63-1.73.84,4.13,6.37,8.35,9.66,16.66,8.56,21.62-.63,2.86-.43,3.41.7,1.83,1.17-1.65,2.76.64,5.87,8.47,5.7,14.33,6.72,19.91,4.69,25.98,0,0-1.19,5.27-1.7,5.08-.5-.19.65-4.89.65-4.89.75-5.62-3.87-23.38-5.77-22.21-.7.43-2.95-3.71-5.01-9.2-2.05-5.49-6.3-13.89-9.45-18.66-3.14-4.78-5.56-9.23-5.36-9.91.2-.67-1.25-1.46-3.22-1.74-2.61-.37-4.14.86-5.69,4.6-2.42,5.85-10.66,12.65-17.31,14.29-11.75,2.89-25.49-10.88-17.49-17.53,1.4-1.16,2.54-3.04,2.54-4.18,0-2.85,5.01-7.13,13.56-11.57,8.35-4.33,13.05-11.09,11.02-15.81-1.27-2.94-1.43-2.95-2.08-.22-.48,2-2.35,2.97-5.73,2.97-2.76,0-7.75,1.14-11.1,2.54-3.35,1.4-8.68,2.54-11.86,2.54s-8.51-1.15-11.86-2.54c-3.35-1.4-8.66-2.54-11.81-2.54-4.05,0-5.72-.77-5.72-2.64,0-1.45-.76-2.17-1.69-1.6-4.93,3.05,2.74,12.92,16.22,20.87,6.93,4.09,13.71,15.27,11.99,19.76-.51,1.33-4,4.45-7.75,6.93l-6.83,4.52-7.65-3.6c-4.21-1.98-9.75-6.47-12.32-9.97-2.57-3.51-5.81-6.32-7.21-6.25-3.79.18-8.47,2.62-8.47,4.4,0,.86,1.72.65,3.82-.47,3.17-1.7,2.93-1.03-1.43,3.94-2.89,3.29-7.03,10.29-9.21,15.55-2.77,6.69-4.42,8.93-5.49,7.44-1.02-1.42-1.25-.87-.69,1.68.46,2.1.24,3.45-.49,3-2.01-1.24-7.19,19.04-5.9,23.1.72,2.25.49,3.16-.62,2.47h0c-.96-.6-2.16.26-2.66,1.9-.5,1.64-.52-1.1-.04-6.1,1.13-11.81,9-31.93,11.25-28.76,1.14,1.6,1.35,1.11.74-1.67-1.77-8.03,6.7-23.57,15.66-28.71,4.22-2.42,4.41-3.16,4.4-17.42,0-11.4-.48-14.49-2.04-13.2-1.12.93-3.61,1.19-5.54.58-2.82-.9-3.98-.02-5.95,4.52-2.29,5.26-2.46,5.36-2.63,1.4-.17-3.84-.31-3.92-1.51-.85-.95,2.42-1.68.12-2.56-8.05-.68-6.29-2.01-11.44-2.97-11.44s-1.3-1.15-.76-2.54c.54-1.4.24-2.54-.67-2.54s-1.64-1.9-1.64-4.23c0-4.18.13-4.22,12.75-3.62,7.01.33,13.19-.1,13.73-.97.54-.87,2.02-1.18,3.3-.7,1.27.49,2.76.16,3.32-.73.55-.89,1.78-1.62,2.74-1.62s-.23,3.52-2.63,7.83c-2.58,4.62-3.29,6.92-1.71,5.62,1.46-1.21,4.17-4.92,6.01-8.25,1.84-3.32,5.23-9.09,7.52-12.82,2.29-3.73,6.19-13.26,8.67-21.18,2.48-7.92,5.34-14.97,6.35-15.65,1.2-.82,5.33-1.22,9.48-1.21h0ZM309.2,178.88l-2.85.75c-2.43.64-.96,7.38-2.29,13.95-.71,3.49-1.38,7.69-2.74,12.04-1.36,4.35-2.31,7.51-3.59,9.77-1.15,2.02-3.12,4.38-4.76,5.87-1.64,1.48,2.64,12.69,2.64,12.69,0,0,.94-11.81,5.35-9.32,5.52,3.13,9.71,1.82,9.71,1.82,0,0-2.97-.7-6.69-5.45-1.16-1.48-1.47-3.91-.92-5.78.79-2.67.38-5.49,5.69-.02,2.99,3.08,4.73,1.9,8.67,1.73,0,0-10.49-7.52-10.14-18.35.15-4.76,1.43-3.88,2.49-3.1,2.42,1.79,2.41,6.26,2.41,6.26,0,0,3.5-4.74,2.32-7.61-2.35-5.74-3.31-15.13-5.31-15.25h0ZM106.81,182.99c-4.8.01-4.81,6.64-7.12,12.29-1.17,2.87-4.1,9.49-4.1,9.49,0,0,6.42-6.36,8.84-8.15,1.07-.79,3.23-1.61,2.49,3.1-2.3,14.66-9.89,26.65-9.89,26.65,4.38-1.89,5.1-3.84,8.09-6.92,5.31-5.47,5.24-5.75,6.03-3.08,0,0-1.19,3.92-.92,5.78.83,5.74-1.27,10.16-1.27,10.16,0,0,4.58-2.08,6.15-4.87,2.48-4.42,2.41,10.53,2.41,10.53,0,0,5.34-14.07,3.7-15.56-1.64-1.48-4.23-3.6-4.76-5.86-.53-2.26-2.23-5.42-3.59-9.77-1.36-4.35-2.04-8.54-2.74-12.03-1.33-6.57-.58-11.74-3.1-11.74-.08,0-.15,0-.23,0h0ZM239.61,185.25s-.03,0-.05,0c-.45.04-.75.41-.75,1.03,0,.99.76,1.79,1.69,1.79s1.69-.34,1.69-.75-.76-1.21-1.69-1.79c-.31-.19-.59-.28-.84-.28-.02,0-.04,0-.05,0h0ZM173.32,185.26s-.01,0-.02,0c-.23.04-.39.66-.44,1.81-.07,1.79.33,2.79.89,2.22.56-.56.62-2.02.13-3.24-.2-.51-.38-.77-.54-.79,0,0-.02,0-.02,0h0ZM139.43,198.82s-.01,0-.02,0c-.23.04-.39.66-.44,1.81-.07,1.79.33,2.79.89,2.22.56-.56.62-2.02.13-3.25-.2-.51-.39-.77-.54-.79,0,0-.01,0-.02,0h0ZM273.28,209.05c-.15,0-.35.07-.59.22-.92.57-1.67,1.75-1.67,2.63,0,2.44,1.22,1.9,2.34-1.03.43-1.13.38-1.8-.08-1.81h0ZM233.76,219.46s-.09.01-.13.05c-.97.28,4.44,11.76,6.52,17.37.58,1.51,1.42,2.4,1.85,1.96.44-.44-.02-2.18-1.01-3.88-.73-1.25-5.77-15.48-7.23-15.49h0ZM280.03,224.92h0s0,0,0,0c.41-.05,1.71,3.27,4.6,11.02,1.65,4.43,2.78,8.05,2.51,8.05-1.79,0-6.34-9.81-6.95-14.96-.29-2.47-.41-3.92-.2-4.08,0,0,.02-.01.03-.02h0ZM248.34,227.29s-.06,0-.09.01c-.07.02-.14.06-.19.12-.47.47-.35,2.13.25,3.7.6,1.57,1.48,2.48,1.94,2.01.47-.47.35-2.13-.25-3.7-.49-1.29-1.18-2.13-1.66-2.13h0ZM133.48,227.56c.16,0-.1,1.27-.6,3.72-.58,2.8-1.76,5.81-2.62,6.69-2.27,2.32-1.94.43,1.05-6.07,1.31-2.84,1.96-4.26,2.16-4.34,0,0,0,0,.02,0h0ZM161.83,228.74c-.47,0-1.67,1.53-2.66,3.39-1,1.86-1.43,3.39-.96,3.39s1.66-1.52,2.66-3.39c1-1.86,1.43-3.39.97-3.39ZM252.97,232.71s-.01,0-.02,0c-.23.04-.39.66-.44,1.81-.07,1.79.33,2.79.89,2.22.56-.56.62-2.02.13-3.24-.2-.51-.39-.77-.54-.79,0,0-.01,0-.02,0h0ZM165.22,237.21c-.47,0-1.66,1.52-2.66,3.39-1,1.86-1.43,3.39-.97,3.39s1.67-1.52,2.66-3.39c1-1.86,1.43-3.39.96-3.39ZM168.59,238.9c-.41,0-1.22.76-1.8,1.69-.58.93-.24,1.7.75,1.7s1.79-.76,1.79-1.7-.34-1.69-.75-1.69h0ZM286.41,250.72h0c.45-.07,2.81,2.55,5.8,6.86,2.6,3.74,4.38,7.14,3.98,7.55-.41.41-1.78-.94-3.05-3-1.27-2.05-3.43-5.45-4.79-7.55-1.62-2.49-2.17-3.69-1.97-3.84,0,0,.02-.01.03-.02h0ZM126.58,252.9h0s.06,0,.09,0c.12.03.19.16.19.4,0,.93-1.95,3.98-4.33,6.78-2.38,2.8-3.55,3.56-2.61,1.69,2.18-4.29,5.65-8.79,6.66-8.88h0ZM288.36,261.15c.12,0,.81.81,2.09,2.33,1.57,1.86,3.96,5.49,5.31,8.05,1.35,2.56,2.08,4.66,1.62,4.66s-1.73-1.72-2.84-3.81c-1.11-2.1-3.12-5.72-4.48-8.05-1.18-2.03-1.77-3.06-1.71-3.17,0,0,0,0,.02-.01h0ZM119.08,271.75c.46.01.51.68.08,1.81-1.13,2.94-2.34,3.47-2.34,1.03,0-.88.75-2.06,1.67-2.63.24-.15.44-.22.59-.21h0ZM156.66,277.88c.54,0-1.61,2.67-4.78,5.93-3.17,3.26-6.27,5.93-6.91,5.93s1.51-2.67,4.77-5.93c3.26-3.26,6.38-5.93,6.92-5.93ZM257.05,286.54s-.05,0-.08,0c-.66.12.28,1.93,2.35,4.4,2.37,2.82,5.31,7.54,6.53,10.49,1.22,2.95,2.59,4.99,3.05,4.54,1.31-1.31-8.95-18.5-11.55-19.37-.12-.04-.22-.06-.3-.06h0ZM153.67,290s-.03,0-.05,0c-.25.03-.67.24-1.23.59-2.08,1.29-5.92,8.66-7.5,14.4-.64,2.33,1.17.11,4.02-4.93,4.24-7.49,5.52-9.96,4.81-10.06-.01,0-.03,0-.05,0h0ZM247.52,295.67l-.58,4.24c-.32,2.33-1.16,5.16-1.86,6.28-.7,1.12-.76,4.09-.13,6.6.7,2.78.51,4.18-.49,3.56-.97-.6-1.32,1.11-.87,4.22.57,3.87.22,4.89-1.34,3.93-1.55-.96-1.81-.24-.99,2.72,1.1,3.96,1.07,3.97-1.73.64-2.81-3.36-2.83-3.35-1.94.43.5,2.1.21,3.39-.64,2.87-.85-.52-1.54-2.01-1.54-3.29s-.87-2.88-1.94-3.54c-1.37-.84-1.61.13-.81,3.3,1.11,4.44-1.62,5.78-4.29,2.09-.61-.85-3.91-1.72-7.32-1.95-3.41-.23-6.65-.86-7.19-1.4-.54-.54-2.4.65-4.12,2.63-2.23,2.57-3.14,2.9-3.14,1.15,0-3.97-12.78-3.09-16.03,1.11-2.1,2.71-2.41,2.8-1.59.42.58-1.66.21-2.97-.84-2.97s-1.88.89-1.88,1.98-.53,1.45-1.18.8h0c-.65-.65-2.23.56-3.51,2.68-1.8,2.99-2.05,3.09-1.12.47.66-1.86,1.52-5.67,1.89-8.47l.69-5.09-2.4,4.07c-1.74,2.96-2.64,3.42-3.28,1.7-.62-1.66-1.46-1.1-2.81,1.86-1.68,3.69-1.82,3.19-1.08-3.81.53-4.99.19-8.05-.9-8.05-.97,0-1.22.88-.55,1.96.74,1.2.46,1.5-.72.76-1.06-.66-1.92-2.87-1.9-4.92.05-6.73-2.12-14.74-4-14.74-1.22,0-1.16-.68.18-2.02,1.57-1.57,3.07-1.07,6.69,2.18,6.67,6,17.94,11.7,23.12,11.7,2.44,0,4.42.76,4.42,1.7,0,2.45,4.67,2.09,5.52-.42.54-1.61,1.45-1.51,3.81.42,2.25,1.85,3.28,1.99,3.78.52.37-1.11,1.65-1.65,2.83-1.2,1.18.45,6.01-1.11,10.73-3.48,4.72-2.37,9.19-4.31,9.93-4.31s3.55-2.1,6.22-4.66l4.87-4.66ZM274.99,336.08h0s.01,0,.02,0c.15.03.33.29.54.79.49,1.22.26,5.09-.3,5.65-.56.56-1.03-.44-.89-2.22.12-1.56.24-4.06.61-4.22,0,0,.01,0,.02,0h0ZM250.09,349.71h0s.01,0,.02,0c.07,0,.16.07.27.18,3.12,3.19,7.07,17.91,6.96,25.9-.07,4.39-.64,9.29-1.27,10.89-.63,1.6-1.15-2.98-1.15-10.17,0-8.74-1.03-15.59-3.1-20.69-1.47-3.61-2.15-6.09-1.73-6.12h0ZM161.65,352.72h0s.01,0,.02,0c.03,0,.06.03.09.05.28.28-.52,4.32-1.77,8.98-1.25,4.66-2.33,6.87-2.39,4.92-.11-3.45,2.94-13.81,4.02-13.95,0,0,.02,0,.03,0h0ZM178.25,353.11s.03,0,.05,0c.83.08.9,2.7.21,8.07-1.51,11.86-2.39,12.52-2.39,1.81,0-4.76.8-9.15,1.77-9.75.13-.08.25-.12.36-.12h0ZM236.1,354.62h0s.01,0,.02,0c.46.17,1.27,4.52,1.87,10.14.64,6,.86,12.35.48,14.11-.38,1.77-1.25-2.79-1.95-10.12-.7-7.33-.92-13.68-.48-14.11.01-.01.03-.03.04-.03,0,0,.01,0,.02,0h0ZM170.09,363.95s.02,0,.03,0c.12,0,.25.27.4.81.43,1.65.4,3.94-.06,5.09-.46,1.15-.82-.2-.78-3,.02-1.75.18-2.77.4-2.89,0,0,.01,0,.02,0h0ZM148.13,364.59s.02,0,.02,0c.11.02.23.34.35,1,.41,2.11.39,5.16-.03,6.78-.42,1.62-.76-.11-.74-3.83.01-2.48.17-3.9.39-3.95h0ZM242.8,364.88h0s.01,0,.02,0c.15.03.34.29.54.79.49,1.22.43,2.68-.13,3.25-.56.56-.97-.44-.89-2.22.05-1.16.21-1.77.44-1.81,0,0,.01,0,.02,0h0ZM224.38,367.42h0s.01,0,.02,0c.1.03.21.25.32.69.43,1.63.43,4.3,0,5.93-.43,1.63-.78.3-.78-2.96,0-2.24.17-3.57.41-3.66,0,0,.01,0,.02,0h0ZM229.1,369.77h0s.01,0,.02,0c.21.08.58,1.31,1.31,3.76,1.54,5.16,1.32,6.86-.65,4.89-.62-.62-1.07-3.1-.99-5.51.07-2.01.11-3.08.29-3.14,0,0,0,0,.02,0h0ZM189.02,369.79c.21.08.45.29.58.61.49,1.22-.03,3.05-.6,3.61-.56.56-.96-.44-.89-2.23.14-.61.38-1.4.46-1.81.04-.21.23-.26.44-.18h0ZM190.41,378.63s.04,0,.06.01c.1.04.21.19.33.48.47,1.16.47,3.07,0,4.24-.47,1.16-1.3.21-1.3-2.12,0-1.64.63-2.6.91-2.61h0ZM183.63,380.32s.04,0,.05.01c.1.04.21.2.33.49.47,1.17.48,4.7,0,5.87-.47,1.17-1.25.04-1.25-2.29,0-1.64.58-4.05.86-4.07h0ZM249.05,389.6h0s.06,0,.1,0c.25.04.53.24.85.57.56.56-.12,5.83-1.51,11.72,0,0-1.84,10.86-2.52,10.7-.68-.16.89-11.02.89-11.02.73-8.97,1.18-11.96,2.19-11.98h0ZM184.76,398.92c.46,0,1.82,1.7,3.41,4.35,1.96,3.26,4.74,7.27,6.19,8.9,1.44,1.63,2.13,2.97,1.52,2.97-1.58,0-11.29-13.71-11.28-15.93,0-.19.06-.28.16-.28h0ZM236.76,400.51s.02,0,.04,0c.17.01.26.19.27.56.03,1.11-1.67,3.82-3.76,6.01-2.1,2.19-2.96,2.81-1.93,1.36,1.03-1.44,2.73-4.15,3.76-6.01.65-1.17,1.23-1.84,1.58-1.91.01,0,.03,0,.04,0h0ZM177.84,403.26h0c.15-.01.83.5,2.09,1.49,1.63,1.28,2.96,2.61,2.96,2.97,0,1.39-1.39.49-3.6-2.33-1.05-1.34-1.57-2.03-1.48-2.12,0,0,.02,0,.02-.01h0ZM226.26,405.38h0c.17,0-.4,1.21-1.64,3.83-1.32,2.8-3.99,6.53-5.93,8.28-3.24,2.93-3.61,2.96-4.62.34-.6-1.57-.62-3.32-.04-3.9.58-.58,1.06.33,1.06,2.02,0,2.75.35,2.68,3.24-.65,1.78-2.06,4.47-5.41,5.97-7.46,1.13-1.54,1.77-2.39,1.94-2.46,0,0,.01,0,.02,0h0ZM215.69,407.24h0s.01,0,.02,0c.15.03.33.28.54.79.49,1.22.43,2.69-.13,3.25-.56.56-.97-.44-.89-2.23.05-1.16.2-1.77.44-1.81,0,0,.01,0,.02,0h0Z"/>
</svg>